<svg height="1024" preserveAspectRatio="none" viewBox="0 0 1024 1024" width="1024" xmlns="http://www.w3.org/2000/svg"><path d="m969.6 351.25q-8.6-20.85-19.4-40.85-6.1-11.35-12.9-22.4-29.35-47.55-71.55-89.8-138.25-138.25-333.8-138.25-195.5 0-333.75 138.25-138.25 138.25-138.25 333.75 0 195.55 138.25 333.8 138.25 138.2 333.75 138.2 195.55 0 333.8-138.2 76.15-76.2 110.35-169.75 27.85-76.25 27.85-164.05 0-67.35-16.4-127.95-1.85-6.85-3.9-13.6-6.15-19.95-14.05-39.15z" fill-opacity=".098039"/><path d="m969.7 392q-1.75-6.85-3.65-13.6-1.52421875-5.28554687-3.2-10.55-2.47128906-7.946875-5.25-15.8-9.75-27.55-23.15-53.65-5.8-11.35-12.3-22.4-30.65-52-76.35-97.75-109-109-253.65-132.05-24.5-3.9-50.05-5.35-14.9-.85-30.1-.85-14.1 0-27.9.75-177.55 9.2-305.85 137.5-138.25 138.25-138.25 333.75 0 195.55 138.25 333.8 84.79003906 84.75703125 191.1 117.55 54.53808594 16.81308594 114.75 19.95.2 0 .4 0 12.15.6 24.5.7 1.5 0 3 0 15.25 0 30.1-.8 3.5-.2 6.95-.45 30.05-2.15 58.7-7.7 11.8-2.3 23.4-5.15 120.6-30.05 214.65-124.1 72.9-72.95 107.35-161.8 27.75-71.6 30.55-153.5.3-9.2.3-18.5 0-1 0-2 0-.5 0-1-.35-61.3-14.3-117z" fill="#8bc34a"/><path d="m800.95 496.45-85.1-54.6-80.85-80.85-314.5 157.25-51.05 146.8 314.05 314.05q12.24941406-1.72519531 24.25-4.05 11.8-2.3 23.4-5.15 120.6-30.05 214.65-124.1 72.9-72.95 107.35-161.8 5.00332031-12.909375 9.2-26.15zm-269.95 92.55v-92h92v92zm140-3v-80h80v80z" fill-opacity=".2"/><path d="m16.75 8.4h.45q-.5-2.6-2.9-4.35-2.4-1.75-5.65-1.75-3.6 0-6.1 2.15-2.55 2.1-2.55 5.1 0 3.3 2.95 5.45.25.15.25.5v.15l-.45 1.7q0 .3.3.3l.15-.1 1.9-1.05q.25-.15.45-.15l.25.05q1.45.4 2.85.4l.5-.05q-.3-.8-.3-1.75 0-2.75 2.3-4.65 2.35-1.95 5.6-1.95m-5.2 0q-.5 0-.8-.35-.35-.3-.35-.8 0-.5.35-.8.3-.35.8-.35.5 0 .8.35.35.3.35.8 0 .5-.35.8-.3.35-.8.35m-6.6-.35q-.35-.3-.35-.8 0-.5.35-.8.3-.35.8-.35.5 0 .8.35.35.3.35.8 0 .5-.35.8-.3.35-.8.35-.5 0-.8-.35m16.35 11.9q0-.25.2-.4 2.5-1.85 2.5-4.55 0-2.5-2.1-4.3-2.15-1.75-5.15-1.75-3 0-5.1 1.75-2.15 1.8-2.15 4.3 0 2.5 2.15 4.25 2.1 1.75 5.1 1.75 1.25 0 2.35-.3l.2-.05.4.1 1.6.95.1.05q.25 0 .25-.25v-.2l-.35-1.2zm-2.15-5.9q-.4 0-.7-.3-.25-.3-.25-.7 0-.4.25-.65.3-.3.7-.3.4 0 .7.3.25.25.25.65 0 .4-.25.7-.3.3-.7.3m-4.15-.3q-.25.3-.65.3-.4 0-.7-.3-.3-.3-.3-.7 0-.4.3-.65.3-.3.7-.3.4 0 .65.3.3.3.3.65 0 .4-.3.7z" fill="#fff" transform="matrix(27.10308838 0 0 27.10308838 186.8 186.7)"/></svg>